<?xml version="1.0" encoding="UTF-8"?><svg id="_レイヤー_1" xmlns="http://www.w3.org/2000/svg" viewBox="0 0 500 156.51"><defs><style>.cls-1{stroke-width:0px;}</style></defs><path class="cls-1" d="m58.65,68.42h12.96c12.25-18.5,23.92-36.76,37.71-36.76,6.72,0,11.08-3.42,11.08-3.42l.47.94s-2.83,2.47-5.66,7.78c-2.12,4.12-7.19,18.15-11.31,31.46h4.71l-.94,1.89h-4.36c-3.3,10.96-5.89,21.21-5.89,25.22,0,1.65.82,2.36,2.24,2.36,2.24,0,5.54-3.54,5.54-3.54l.82.83s-6.13,6.95-10.84,6.95c-4.24,0-7.07-2.59-7.07-7.31,0-5.54,2.47-14.26,6.01-24.51h-16.02c-11.78,21.8-24.98,45.13-47.01,45.13-15.44,0-24.15-10.72-24.15-22.5,0-15.2,11.31-23.21,20.62-23.21,6.95,0,12.02,3.42,12.02,7.42,0,1.89-1.18,3.18-3.06,3.18-2.36,0-3.18-2.12-3.18-4.36,0-2.36-1.77-4.24-6.13-4.24-7.89,0-16.85,7.07-16.85,17.67,0,11.55,7.07,16.73,19.21,16.73,15.67,0,28.87-17.44,41-35.82h-12.84l.94-1.89Zm20.38,0h15.67c2.71-7.66,5.66-16.14,8.96-24.74,1.53-3.89,3.77-8.25,7.42-10.72-12.96,0-22.03,16.97-32.05,35.47Z"/><path class="cls-1" d="m124.04,85.39c-2.24,3.18-5.42,13.2-5.42,15.08,0,1.3-.59,1.65-1.65,1.65s-2.47-.35-4.6-.35c-2.24,0-3.18.94-3.65.94-.24,0-.47-.24-.47-.47,0-.47,1.3-1.3,2.12-2.95,2.83-5.42,6.36-17.79,6.36-20.03,0-1.06-.24-1.77-1.3-1.77-1.3,0-4.95,3.18-4.95,3.18l-.71-.94c1.77-1.65,7.19-6.48,10.96-6.48,2.83,0,4.24,1.41,4.24,3.77s-.71,5.3-.94,5.89c2-3.65,7.42-9.66,11.19-9.66,2.12,0,3.89,1.77,3.89,3.89,0,2.36-1.53,4.6-4.12,4.6-2,0-2.95-1.3-2.95-2.83,0-.71-.47-1.06-.94-1.06-2.12,0-4.12,3.3-7.07,7.54Z"/><path class="cls-1" d="m150.79,94.93c0,2,.82,2.95,2.47,2.95,2.24,0,5.54-3.54,5.54-3.54l.82.83s-6.36,6.95-11.78,6.95c-3.42,0-5.77-2.47-5.77-5.89,0-5.18,6.36-12.37,6.36-16.97,0-1.06-.24-1.77-1.3-1.77-1.3,0-4.95,3.18-4.95,3.18l-.71-.94c1.89-1.65,7.31-6.48,11.08-6.48,2.83,0,4.36,1.41,4.36,3.77,0,5.07-6.13,13.08-6.13,17.91Zm8.13-38.41c1.65,0,2.95,1.06,2.95,2.95,0,3.18-2.71,7.07-5.3,7.07-1.77,0-3.3-1.06-3.3-3.3,0-3.06,3.06-6.72,5.66-6.72Z"/><path class="cls-1" d="m193.21,97.88c2.24,0,5.54-3.54,5.54-3.54l.71.83s-6.24,6.95-10.25,6.95c-3.53,0-5.42-2.59-5.42-5.3,0-1.3,0-2.83.35-4.24-1.53,3.42-7.54,9.54-12.84,9.54s-8.48-3.77-8.48-8.72c0-11.19,10.6-20.15,18.38-20.15,4.48,0,6.83,2.47,7.19,5.54.82-2.36,2.71-4.12,6.72-4.71,3.77-.47,5.66-2.12,5.66-2.12l.59,1.18s-3.42,1.89-5.3,5.3c-1.89,3.65-4.95,13.31-4.95,17.32,0,1.41.82,2.12,2.12,2.12Zm-8.48-8.37c.94-2.24,2.36-6.95,2.36-8.84,0-2.83-1.18-5.66-4.71-5.66-6.01,0-11.19,10.25-11.19,17.32,0,4.36,1.3,6.6,4.01,6.6,2.95,0,7.42-5.07,9.54-9.43Z"/><path class="cls-1" d="m201.81,102.23c0-.47,1.3-1.3,2.12-2.95,2.83-5.42,6.36-17.79,6.36-20.03,0-1.06-.24-1.77-1.3-1.77-1.3,0-4.95,3.18-4.95,3.18l-.71-.94c1.77-1.65,7.19-6.48,10.96-6.48,2.83,0,4.24,1.41,4.24,3.77,0,2.47-2.12,7.89-2.12,7.89,4.01-5.3,12.37-11.67,18.03-11.67,2.59,0,4.6,1.89,4.6,4.36,0,5.66-5.42,10.6-5.42,17.32,0,2,.82,2.95,2.36,2.95,2.83,0,5.89-3.54,5.89-3.54l.71.83s-5.66,6.95-11.67,6.95c-3.77,0-6.13-2.24-6.13-5.66,0-5.89,6.48-12.25,6.48-16.97,0-1.53-.71-2.24-2.12-2.24-2.12,0-8.25,3.53-12.14,9.43-2.12,3.06-4.83,11.9-4.83,13.79,0,1.3-.59,1.65-1.65,1.65s-2.47-.35-4.6-.35c-2.24,0-3.18.94-3.65.94-.24,0-.47-.24-.47-.47Z"/><path class="cls-1" d="m275.8,97.88c2.24,0,5.54-3.54,5.54-3.54l.71.83s-6.24,6.95-10.25,6.95c-3.53,0-5.42-2.59-5.42-5.3,0-1.3,0-2.83.35-4.24-1.53,3.42-7.54,9.54-12.84,9.54s-8.48-3.77-8.48-8.72c0-11.19,10.6-20.15,18.38-20.15,4.48,0,6.83,2.47,7.19,5.54.82-2.36,2.71-4.12,6.72-4.71,3.77-.47,5.66-2.12,5.66-2.12l.59,1.18s-3.42,1.89-5.3,5.3c-1.89,3.65-4.95,13.31-4.95,17.32,0,1.41.82,2.12,2.12,2.12Zm-8.48-8.37c.94-2.24,2.36-6.95,2.36-8.84,0-2.83-1.18-5.66-4.71-5.66-6.01,0-11.19,10.25-11.19,17.32,0,4.36,1.3,6.6,4.01,6.6,2.95,0,7.42-5.07,9.54-9.43Z"/><path class="cls-1" d="m344.38,95.75c-6.01,9.9-14.49,14.14-22.51,14.14-9.54,0-12.25-4.83-12.25-6.83,0-1.06.71-1.77,1.53-1.77.94,0,1.41.71,1.41,1.41,0,1.3,1.53,4.83,6.6,4.83,6.95,0,11.31-5.3,15.91-14.96,7.54-15.79,9.78-44.42,24.27-56.44-5.89-2.71-12.14-5.42-21.8-5.42-14.14,0-31.46,12.84-31.46,31.11,0,8.13,3.53,15.08,12.37,15.08,6.72,0,10.96-4.95,10.96-9.31,0-2.95-2-3.3-2-5.54,0-1.89,1.06-3.06,3.06-3.06,1.89,0,3.42,1.3,3.42,4.12,0,8.6-7.31,15.67-16.14,15.67-10.25,0-18.5-6.48-18.5-17.56,0-20.74,19.8-32.52,39.35-32.52,18.5,0,22.86,4.36,40.77,4.36,5.42,0,8.37-1.3,12.02-3.54.59-.35.94-.71,1.3-.71s.59.24.59.59c0,.47-.24.82-.71,1.41-1.88,2.59-8.01,10.37-14.38,10.37s-11.31-1.65-16.02-3.77c-12.73,13.67-7.78,41.59-17.79,58.33Z"/><path class="cls-1" d="m387.98,83.5c0,10.6-9.07,18.85-17.67,18.85-6.95,0-11.9-3.42-11.9-10.37,0-10.02,7.78-18.97,17.44-18.97,7.31,0,12.14,3.89,12.14,10.49Zm-22.15,10.96c0,3.53,1.77,6.13,4.6,6.13,5.42,0,10.25-10.84,10.25-20.5,0-3.54-1.77-5.54-4.83-5.54-6.01,0-10.02,9.54-10.02,19.91Z"/><path class="cls-1" d="m413.19,95.28c1.41,2.59,3.77,5.07,7.07,5.89l.12.94h-6.36c-3.65,0-6.24-1.3-7.42-3.89l-4.71-9.78c-1.65,5.18-3.3,11.08-3.3,12.14,0,1.3-.47,1.77-1.53,1.77-1.18,0-2.59-.47-4.6-.47-2.36,0-3.06.94-3.53.94-.24,0-.47-.12-.47-.47,0-.47,1.18-1.41,2.12-2.83,1.41-2.12,3.53-9.19,5.54-16.97l6.83-26.75c.94-3.42,2.95-5.54,5.18-6.95-.47.12-.94.12-1.53.12-2,0-4.12-.47-4.12-.47l.82-1.3s1.18.35,3.18.35c2.59,0,6.72-.47,11.9-2.71l.47.94s-3.65,2.36-5.66,5.89c-2.83,4.95-8.37,26.04-10.96,35.11,5.77-6.48,12.49-13.55,17.08-13.55,2.12,0,3.77,1.77,3.77,3.89,0,2.36-1.41,4.6-4.01,4.6-2.12,0-3.06-1.3-3.06-2.83,0-.71-.35-1.06-.83-1.06-2.12,0-6.24,3.89-7.66,5.89,0,0,2.59,6.01,5.66,11.55Z"/><path class="cls-1" d="m432.28,102.23c-2.83,0-5.89-2.12-5.89-6.01,0-5.18,6.36-12.37,6.36-16.97,0-1.06-.24-1.77-1.3-1.77-1.3,0-4.83,3.18-4.83,3.18l-.82-.94c1.89-1.65,7.31-6.48,11.08-6.48,2.83,0,4.12,1.41,4.12,3.77,0,4.71-5.89,13.08-5.89,18.26,0,1.53.71,2.59,2.36,2.59,1.89,0,5.54-2.24,8.96-6.36,2-2.24,2.83-3.89,3.77-7.89,1.3-5.77,3.18-8.84,8.48-9.54,3.65-.47,5.66-2.12,5.66-2.12l.59,1.18s-1.65,1.06-3.42,2.95c-2.83,3.18-4.36,6.24-6.01,12.84-1.41,5.42-2.59,14.49-4.24,22.86-1.89,9.9-8.37,16.5-18.03,16.5-6.6,0-11.43-3.77-11.43-9.9,0-3.53,2.71-6.01,5.18-6.01,1.77,0,2.95,1.18,2.95,2.83,0,3.3-3.3,4.01-3.3,7.42,0,2.36,1.89,4.24,4.83,4.24,8.72,0,13.31-18.38,16.73-34.64-4.24,4.95-10.49,10.02-15.91,10.02Z"/><path class="cls-1" d="m493.08,83.5c0,10.6-9.07,18.85-17.67,18.85-6.95,0-11.9-3.42-11.9-10.37,0-10.02,7.78-18.97,17.44-18.97,7.31,0,12.14,3.89,12.14,10.49Zm-22.15,10.96c0,3.53,1.77,6.13,4.6,6.13,5.42,0,10.25-10.84,10.25-20.5,0-3.54-1.77-5.54-4.83-5.54-6.01,0-10.02,9.54-10.02,19.91Z"/></svg>